<?xml version="1.0" encoding="UTF-8"?>
<svg id="Capa_1" data-name="Capa 1" xmlns="http://www.w3.org/2000/svg" version="1.1" viewBox="0 0 428.4 217.4">
  <defs>
    <style>
      .cls-1 {
        fill: #ae9472;
        stroke-width: 0px;
      }

      .cls-2 {
        opacity: .4;
      }
    </style>
  </defs>
  <g class="cls-2">
    <path class="cls-1" d="M166.1,113.5c0-23.3-16.4-35.3-41.3-34.6-11.5.2-20.5,2.8-25.1,3.7l-2.3-1.6,9.2-55.6,1.8-10.8h35.5C164.5,14.5,172.6,9.2,176.5,0l2.3.9c-5.5,12.7-14.3,24.4-41.3,24.4h-28.1l-7.4,46.3c8.8-2.8,17.8-4.2,29.1-4.2,35.1-.2,49.4,20.5,49.4,42,0,32.3-31.1,64.1-86,98.5l-1.4-2.8c49.8-30.9,73.1-65,73.1-91.8h0Z"/>
    <path class="cls-1" d="M200.7,95c0-48.9,31.1-82.1,67.3-82.1s70.1,27.9,70.1,83.2-31.1,82.1-67.3,82.1-70.1-27.9-70.1-83.2h0ZM277.5,173.9c32.5,0,47-28.1,47.5-63.9.5-47.7-25.8-92.7-62.5-92.7s-48.2,28.1-48.7,63.9c-.5,47.7,25.8,92.7,63.6,92.7Z"/>
  </g>
  <path class="cls-1" d="M167.4,216.7c.9-.2,1.7-.7,2.9-3.6l7.1-17.5c.2-.5.2-.9,0-1.4l-.2-.4,1.7-.8,8.3,20.1c1.2,2.9,1.9,3.4,2.6,3.6v.4h-4.3v-.4c.9-.2.9-.7-.3-3.6l-2.1-5.1h-10.2l-2.1,5.1c-.9,2.1-.9,3.4.3,3.6v.4h-3.7v-.4h0ZM182.8,207.5l-4.9-12-4.8,12h9.8Z"/>
  <path class="cls-1" d="M193.4,195.7v16.4c0,3.6.8,4.3,2.1,4.6v.4h-3.9v-.4c.9-.2,1.4-.8,1.4-3.9v-15.2c0-3.1-.6-3.7-1.8-3.9v-.4h2.8l15.5,20.8v-15.8c0-3.5-.8-4.3-2.1-4.6v-.4h3.9v.4c-.9.2-1.4.8-1.4,3.9v19.8h-.4l-16.1-21.6h0Z"/>
  <path class="cls-1" d="M214.5,205.1c0-7.2,4.8-12.2,12-12.2s12,3.9,12,12.3-6.3,12.2-12,12.2-12-3.9-12-12.2h0ZM227.4,216.7c5.7,0,9.3-3.9,9.3-9.8s-4.8-13.4-11.2-13.4-9.2,4.1-9.2,9.8,4.7,13.4,11.1,13.4h0Z"/>
  <path class="cls-1" d="M242,215l-.2-4.4h.3c1.2,3.2,3.3,6.3,8.3,6.3s5.6-2.1,5.6-4.8-3.9-5.1-6.9-6.3c-4.6-1.8-6.7-3.5-6.7-6.7s3.2-6.2,7.8-6.2,5.9,1.2,6.8,1.7v3.4c.1,0-.1,0-.1,0-1.1-2.4-3-4.7-7.5-4.7s-5.4,1.6-5.4,4.7,3.6,4.7,6.7,6c4.1,1.7,7,3.2,7,6.8s-3.6,6.4-7.7,6.4-6.5-1.4-7.9-2.4h0Z"/>
  <path class="cls-1" d="M194.6,190.1c-.1-1.8,1.3-2.9,3.8-2.9s2.1.3,3.3.6c.9.3,1.8.5,2.7.5s1.3-.2,1.5-1.1h2.6c0,1.8-1.2,2.8-3.8,2.8s-2.2-.2-3.4-.6c-1.1-.3-1.9-.6-2.6-.6s-1.3.5-1.5,1.3h-2.6Z"/>
  <g>
    <path class="cls-1" d="M45.7,135.5c-3,9.2-7.3,17.9-10.7,24.4-1.2,2.2-2.4,4.4-4.2,6-.5.4-1,.9-1.7,1-.4,0-.8,0-1.3-.4-1.1-.6-1.7-1.7-1.8-3.1-.7-6.9,1.2-13.1,5.9-19.5,3.8-5.2,8.1-9.8,12.7-13.6.7-.6,1.5-1.3,1.9-2.4,2.9-8.1,5.5-15.5,7.5-23.1.2-.6.3-1.4.4-2.2,0-.3,0-.6.1-.9.2-.8.4-1.8-.5-2.5-.5-.3-1-.5-1.5-.5-.8,0-1.4.5-2,1l-.3.2c-4,2.8-6.9,6.6-9.8,10.3-.6.8-1.3,1.6-1.9,2.4l-1.1,1.4c-3.1,3.9-6.3,7.9-10.1,11.3-1.8,1.5-3.3,2.5-5,3.1-.4.2-.9.3-1.3.3-.8,0-1.5-.1-2.2-.6-.8-.6-1.4-1.5-1.7-2.7-.4-1.5-.4-2.9.2-4.6,3.4-10.7,10-19.7,19.5-26.8.4-.3.8-.5,1.2-.6,0,0,.2,0,.2,0,.4,0,.7,0,.9.1.1.1.2.2.3.4,0,.2,0,.5-.3.7l-.7.7c-.7.7-1.4,1.4-2.1,2.1-6.8,6.6-11.8,13.1-15.1,20.1-1,2-2,4.5-2.1,7.4,0,.8.1,1.3.5,1.6.3.3.7.4,1.3.4.2,0,.3,0,.5,0,2.1-.4,3.6-1.6,4.9-2.7,4.6-3.7,8.3-8.4,11.8-12.9,1-1.2,1.9-2.4,2.9-3.6l.3-.3c2.6-3.2,5.3-6.5,9.1-8.7l.3-.2c.6-.4,1.2-.7,1.9-.8.6,0,1.1.1,1.7.5,1.6,1,1.5,2.4,1.4,3.7v.2c-.4,5.3-1.9,10.3-3.4,15.1-.3,1.1-.7,2.2-1,3.4-.3.9-.6,1.9-1,3l-.7,2-4,9.9ZM44,132.1c-.5,0-1.4.7-2.8,2.1-1.5,1.5-2.9,2.9-4.2,4.3-2.7,3-5.1,6.2-7,9.3-2.9,4.6-4,9.4-3.5,14.4v.3c.1,1,.2,2.3,1.5,2.8.3.1.5.2.8.1.7,0,1-.7,1.4-1.2,0-.2.2-.3.3-.4,2.5-3.6,4.2-7.7,5.9-11.6l.7-1.6c1.3-3.1,2.6-6.2,3.9-9.3l2.9-6.8c0,0,.1-.2.2-.4.4-.7.7-1.3.5-1.7,0-.2-.3-.3-.6-.3Z"/>
    <path class="cls-1" d="M74.4,120.9c.1.6-1.4,1.2-2,1.4-.9.4-1.8.6-2.7.6-.8,0-1.6,0-2.5-.1-.4,0-.8,0-1.1,0-.9,0-1.4.5-1.7,1.5-.8,2.3-2.3,4.2-4.4,5.8-.5.4-1.2.8-2.1.9-.5,0-1,0-1.5-.4-1.4-.8-1.6-2.2-1.6-3.6,0-3.6,1.1-6.8,3.5-9.6.6-.7,1.2-1.3,1.8-2,.5-.5,1-.8,1.7-.8.4,0,.8,0,1.3.2,1,.4,1.7,1.2,2.2,2.5.4,1.1.5,2.2.3,3.2-.1.6,0,1,.2,1.3.3.3.8.4,1.5.4.4,0,.9,0,1.3,0,1,0,1.9-.2,2.7-.4.4,0,.7-.3,1.1-.4.4-.2.8-.4,1.3-.5,0,0,.2,0,.3,0,.3,0,.4.1.5.1ZM63.1,121.8c-.3-.3-.5-.5-.7-.7-.5-.4-1-.9-1.6-1.3-.1,0-.2-.2-.4-.3-.3-.3-.6-.6-1-.6-.2,0-.4.1-.5.4-1.8,3-3,5.7-2.8,9,0,.6.2,1,.5,1.3.2.2.5.3.8.3.2,0,.5-.1.8-.3,2.9-1.7,4.1-4.6,4.9-7,0-.1,0-.3,0-.5,0,0,0-.2,0-.3ZM62.7,117.3c-.2-.1-.4-.2-.6-.2-.5,0-1,.6-1.1.9-.3,1.1.6,1.7,1.4,2.2.2.2.5.3.7.5l.2.2v-.2c0-.2,0-.5.1-.7.1-.9.3-1.9-.8-2.7Z"/>
    <path class="cls-1" d="M101.9,118.9c0,.2-.1.5-.3.8,0,.1-.2.2-.2.3-2.6,4.7-6.3,8.6-11.4,12-.5.4-1.2.6-2.1.6h0c-.9,0-1.6-.1-2.1-.5-.5-.4-.8-1.1-.9-2-.1-1.6.5-2.9,1.2-4.2l.4-.9c.2-.4.4-.8.6-1.3v-.2c.2-.3.4-.7-.1-1.2-.3-.2-.6-.4-1-.3-.2,0-.3,0-.5,0-1.3.4-2.7.9-4,1.4-1.7.7-3.3,1.8-4.7,2.7-.7.4-1.3.9-2,1.3h-.2c-.3.3-.6.5-1,.5-.3,0-.7,0-1-.4-.8-.6-.7-1.2-.6-1.8v-.2c.4-2.9,1.3-5.5,2.6-7.9v-.2c.2-.3.4-.6.7-.6.1,0,.2,0,.3,0,.2,0,.4.2.5.4.4.6,0,1.8-.3,2.4,0,.2-.1.3-.2.4l-1.5,4.9c0,.1-.2.5.1.7.1,0,.3.1.5.1.5,0,1.1-.3,1.3-.5.3-.2.6-.4.8-.6.3-.2.6-.5,1-.7,1.1-.6,2.2-1.2,3.3-1.8,1.4-.7,2.7-1.2,3.9-1.4.2,0,.4,0,.6,0,.9,0,1.7.2,2.2.7.6.6.8,1.4.6,2.4-.2,1.2-.6,2.4-1,3.5-.2.6-.4,1.3-.6,1.9v.2c-.2.4-.4.9.1,1.3.3.2.6.4,1,.3.3,0,.6-.1.8-.2,3.2-1.2,5.4-3.5,7.2-5.6,1.5-1.7,3.4-3.9,4.5-6.4h0c.1-.5.3-1,.7-1,0,0,.2,0,.3,0,.2.1.4.3.4.4Z"/>
    <path class="cls-1" d="M127.7,117.4c-.7.6-1.6,1.1-2.4,1.6-.4.2-.8.5-1.2.7-1.3.9-2.6,1.7-3.9,2.7-2.8,2-5.1,3.9-7.2,5.9-.7.7-1.2,1.5-1.6,2.4l-1.1,2.7c-1.8,4.8-3.8,9.8-6.1,14.4-1,1.9-2.3,4.2-4.4,6.2-.4.4-1,.9-1.8,1.1-.3.1-.6.2-.8.2-.5,0-.9-.1-1.4-.4-.7-.5-.7-1.1-.6-1.8,0-1.6.6-3,1.2-4.3,2.3-5.3,5.8-10.4,10.6-15.6,1.5-1.7,2.7-3.5,3.5-5.5,1-2.6,2.1-5.1,3.1-7.6l1.5-3.5-.4.2c-2.3,1-3.9,2.7-5.5,4.2-.7.7-1.3,1.3-2.1,1.9l-.8.7c-1.3,1.2-2.7,2.4-4.5,3.2-.4.1-.7.2-1,.3-.5,0-1-.1-1.6-.5-.9-.5-1.2-1.3-1.2-2.4.1-3.3,2-5.5,3.9-7.4.2-.2.4-.3.6-.3.3,0,.5,0,.8.3.5.4.4.8.1,1.3-.3.5-.6,1-.9,1.5-.4.7-.9,1.4-1.2,2.1-.1.3-.3.5-.5.7-.4.6-.8,1.2-.9,2,0,.4,0,.8.3,1,.2.2.6.3,1.1.3.5,0,1.1-.2,1.5-.4.8-.4,1.4-.9,2.1-1.4,1.6-1.3,3-2.7,4.5-4,1.2-1.1,2.4-2.1,3.6-3.2.1-.1.2-.2.4-.3.4-.4.8-.8,1.3-.8.3,0,.6,0,1,.4.8.6.6,1.4.3,2.2,0,.2-.1.3-.2.5-.2.8-.5,1.6-.7,2.4-.4,1.4-.8,2.7-1.1,4.2h.3c0-.1.7-.4,1.1-.7.2-.1.4-.2.5-.3l1.7-1.2c1.7-1.2,3.4-2.4,5.1-3.4.9-.5,1.8-1.1,2.7-1.6.2-.1.5-.3.7-.5.6-.4,1.2-.8,1.9-1,0,0,.1,0,.2,0,.1.1-.2.7-.4.8ZM107.2,135.4l-.3-.3c-3.1,3-5.8,6.4-8,10-1.2,1.9-2.3,3.9-2.7,6.4,0,.1,0,.3,0,.4-.2.6-.4,1.4.5,1.9.3.2.5.2.7.2.5,0,.8-.5,1-.8,0,0,.1-.2.2-.3,4.2-5.1,6.5-11.4,8.6-17.6Z"/>
    <path class="cls-1" d="M176.2,119.3c0,.7.1,1.3.1,2,0,1.9-.1,3.8-.6,5.7-.7,3.3-2.2,6.4-4.2,9.1-1.9,2.5-4.1,4.7-6.6,6.6-1,.8-1.9,1.5-2.9,2.2-2.3,1.7-4.8,2.6-7.4,2.8,0,0-.4,0-.6,0-2.3,0-4.4-.6-5.7-1.9-1.4-1.3-2-3.2-1.8-5.3.3-3.9,2.6-6.5,5-8.7,6.1-5.7,13.2-10.7,20.9-14.9,1.3-.7,1.9-1.4,1.8-2.3,0-.9-.8-1.8-2.4-3.1-3.7-2.9-7.6-3.4-11.6-3.7-1.3,0-2.6-.1-3.9-.1-1.8,0-3.6,0-5.4-.3-1.3-.1-2.3-.6-2.8-1.3-.5-.8-.5-1.8.1-2.8.3-.6.8-1.1,1.3-1.6,9.1-8.3,18.5-14.4,28.5-18.6,1.9-.8,3.5-1.2,5.2-1.3h.4c1.8-.1,3.4.4,4.3,1.3.9.8,1.3,2,1.2,3.4-.5,6.3-3.9,11-6.9,14.4-.2.2-.3.4-.5.4,0,0-.1,0-.3-.1-.6-.4-.4-.8-.1-1.3l1.5-2.7c1-1.8,2-3.6,3-5.4.8-1.5,1.7-3.4,1.8-5.7,0-1.1-.1-1.9-.7-2.4-.5-.5-1.4-.8-2.6-.8-.3,0-.6,0-.9,0-2.9.2-5.2,1.3-7.3,2.4-5.8,3.1-11.4,6.7-16.4,10.7-1.8,1.5-3.6,2.8-5.2,4.3-.9.8-1.7,1.6-2.5,2.4-.2.2-.3.3-.5.5-.3.3-.7.6-.9,1-.3.4-.5.7-.3,1.1.2.3.7.4,1,.4h1c1.1.1,2.2.2,3.2.3,1.6.1,3.3.3,5.1.5,3.4.5,6.8,1.2,9.6,3.2,1,.7,2.1,1.6,2.9,2.5,1.7,1.9,2.6,4.5,3,7ZM174.5,116.9c-.5,0-1,.4-1.4.6h-.2c-.7.6-1.4,1-2.1,1.4-1.4.8-2.8,1.7-4.1,2.6-2.9,1.9-5.4,3.8-7.8,5.8-2.6,2.2-5,4.4-7,6.8-2,2.2-3,4.4-3.1,6.9,0,1.5.3,2.6,1.1,3.5.8.8,2.1,1.2,3.6,1.3.2,0,.4,0,.6,0,.7,0,1.4-.2,2-.4,8.1-2.9,14-8.6,18-17.5.6-1.3,1.3-3,1.6-4.9.2-1.3.3-2.4.1-3.5,0-.6-.1-1.2-.4-1.9,0-.2-.2-.3-.3-.4-.2-.1-.4-.2-.6-.2Z"/>
    <path class="cls-1" d="M208.5,109.4c0,.1,0,.4-.2.7-3.3,4-7.5,7.6-12.4,10.9l-.3.2c-.4.3-.8.6-1.3.6-.4,0-.7-.1-1.1-.4-1-.7-.8-1.5-.6-2.3,0-.2,0-.3.1-.5.5-2.3,1.3-4.4,2.2-6.3,0,0,1.1-2.5,1.4-3,0,0,.1-.2.2-.4.5-1,1.1-2,.8-2.6,0-.1-.2-.3-.4-.3,0,0-.2,0-.3,0-.7,0-1.6,1.3-1.7,1.3-.5.6-1,1.5-1,2.6v.2c0,.3,0,.8-.1.8,0,0-.3,0-.8-.5h-.1c0-.1-.3.2-.3.2-.2.2-.3.4-.5.6-.7.9-1.4,1.8-2.1,2.8-1.5,2-3,4.2-5,6l-.4.4c-.6.6-1.2,1.2-2,1.3-.4,0-.7,0-1.1-.3-1.6-.9-1.3-2.4-1-3.8v-.3c.6-3.4,1.9-6.4,3.9-8.9,1.4-1.8,3-2.7,5.1-2.9h.2c.9,0,1.8-.1,2.3.4.7.9,1.3,1.2,1.9,1.2.5,0,.9-.5,1.3-.9v-.2c.4-.3.8-.6,1.2-.8.3-.2.6-.3.9-.4.2,0,.5,0,.7.2.6.4.5.9.3,1.5-1,2.6-2,5.2-3,7.7l-.8,2c-.3.8-.6,1.7-.8,2.5l-.2.8c0,.4,0,.6,0,.8,0,.1.2.2.3.2,0,0,.2,0,.3,0,.7,0,1.8-.7,2.1-.9,2.1-1.7,4.2-3.4,6.1-5.1.6-.5,1.2-1.1,1.8-1.7.4-.4.9-.8,1.3-1.2.2-.2.4-.4.6-.6.4-.4.8-.7,1.2-1h.2c.2-.3.5-.6.7-.6.1,0,.3,0,.3.1ZM192.7,107c-.4-.5-1.1-.8-1.7-.8,0,0-.2,0-.2,0-.8.2-1.6.6-2.2,1-2.9,2-4.4,5.1-5.6,7.9-.1.3-.3.6-.4.9-.3.7-.7,1.4-.8,2.2,0,.4,0,1.5.5,1.9.1.1.3.2.4.1.2,0,.3,0,.5-.2,2.9-2.1,4.9-5,6.9-7.8.9-1.3,1.9-2.7,2.9-3.9.3-.4.3-.9-.1-1.4Z"/>
    <path class="cls-1" d="M236,109.1c0,.2-.1.5-.3.8,0,.1-.2.2-.2.3-2.6,4.7-6.3,8.6-11.4,12-.5.4-1.2.6-2.1.6h0c-.9,0-1.6-.1-2.1-.5-.5-.4-.8-1.1-.9-2-.1-1.6.5-2.9,1.2-4.2l.4-.9c.2-.4.4-.8.6-1.3v-.2c.2-.3.4-.7-.1-1.2-.3-.2-.6-.4-1-.3-.2,0-.3,0-.5,0-1.3.4-2.7.9-4,1.4-1.7.7-3.3,1.8-4.7,2.7-.7.4-1.3.9-2,1.3h-.2c-.3.3-.6.5-1,.5-.3,0-.7,0-1-.4-.8-.6-.7-1.2-.6-1.8v-.2c.4-2.9,1.3-5.5,2.6-7.9v-.2c.2-.3.4-.6.7-.6.1,0,.2,0,.3,0,.2,0,.4.2.5.4.4.7,0,1.8-.3,2.4,0,.2-.1.3-.2.4l-1.5,4.9c0,.1-.2.5.1.7.1,0,.3.1.5.1.5,0,1.1-.3,1.3-.5.3-.2.6-.4.8-.6.3-.2.6-.5,1-.7,1.1-.6,2.2-1.2,3.3-1.8,1.4-.7,2.7-1.2,3.9-1.4.2,0,.4,0,.6,0,.9,0,1.7.2,2.2.7.6.6.8,1.4.6,2.4-.2,1.2-.6,2.4-1,3.5-.2.6-.4,1.3-.6,1.9v.2c-.2.4-.4.9.1,1.3.3.2.6.4,1,.3.3,0,.6-.1.8-.2,3.2-1.2,5.4-3.5,7.2-5.6,1.5-1.7,3.4-3.9,4.5-6.4h0c.1-.5.3-1,.7-1,0,0,.2,0,.3,0,.2.1.4.3.4.4Z"/>
    <path class="cls-1" d="M294.8,151.6c-.3,0-.6,0-.9-.3-1.3-.8-1.3-1.9-1.2-2.9v-.2c.2-5,1.2-9.9,2.2-14.5v-.4c2.7-12.5,13.7-43.9,17.3-55.7l1.4-4.6.4-1.2c.3-.9.6-1.8.8-2.7.2-1,.4-2,.5-2.9,0-.2,0-1-.5-1.2-.1,0-.2,0-.4,0-.6,0-1.2.6-1.7,1-.1.1-.2.2-.3.3-1.2.9-2.4,2-3.4,3l-.4.4c-1.7,1.7-3.2,3.6-4.7,5.4v.2c-3.2,3.9-15,18.6-17.9,22.5-2.1,2.7-4.2,5.5-6.3,8.2-.8,1-1.7,1.8-2.6,2.7-.3.3-.7.6-1,.9-.4.4-.8.6-1.3.6-.3,0-.6,0-.9-.2-.8-.4-1.2-1.2-1.2-2.4,0-2.1.3-4.1.5-6.1v-1c.2-1,.3-2,.5-3,.3-2.7.7-5.5.6-8.3,0-.8-.1-1.5-.3-2.2-.1-.5-.2-.9-.5-1.2-.2-.3-.5-.5-.8-.4-1,0-2.3,1.9-2.8,2.7-4.3,6.2-7.1,13.4-9.9,20.3-.5,1.2-2.3,5.6-2.3,5.6-.7,1.9-1.5,3.7-2.3,5.5,0,.1-.1.3-.2.5-.1.4-.3.9-.6,1.1,0,0-.2.1-.3.1-.2,0-.4-.1-.6-.4-.3-.4,0-.9,0-1.4,0-.1,0-.2.1-.3,2.5-9.3,5.9-20,11.9-29.5,1.4-2.2,2.7-3.7,4.2-4.9.7-.6,1.4-.9,2-.9.5,0,.9,0,1.4.3,1.4.7,1.6,2,1.7,3.4.2,2.6,0,5.1-.2,7.2-.2,2.2-.5,4.5-.8,6.7-.1,1.2-.3,2.4-.4,3.6v.3c0,.6-.2,1.1-.1,1.7,0,.9,0,1.7.5,2h0c0,0,.3.1.3.1.4,0,.8-.4,1.2-.8l.2-.2c.9-.8,1.8-1.7,2.6-2.8,1-1.3,2-2.7,2.9-4,.5-.8,1-1.5,1.6-2.3,5.6-7.8,19.4-25.4,25.7-31.7,1.4-1.4,2.8-2.7,4.6-3.6.4-.2.8-.3,1.1-.3.5,0,1,.1,1.5.5.9.6,1.2,1.3,1.2,2.4,0,2.1-.4,3.9-.9,5.5-1.3,4.5-2.7,9-4.1,13.3-2.5,7.8-12.3,35-14.2,43.2l-.5,2.4c-1.3,5.5-2.6,11.2-3,17.1,0,.2,0,.4,0,.6-.1.8-.3,1.8,1,2.7.2.1.2.2.2.3,0,.1-.1.3-.3.4-.1,0-.3,0-.4.1Z"/>
    <path class="cls-1" d="M337.6,99.9c0,.1,0,.4-.2.7-3.3,4-7.4,7.6-12.4,10.9l-.3.2c-.4.3-.8.6-1.3.6-.4,0-.7-.1-1.1-.4-1-.7-.8-1.5-.6-2.3,0-.2,0-.3.1-.5.5-2.3,1.3-4.4,2.2-6.3,0,0,1.1-2.5,1.4-3,0,0,.1-.2.2-.4.5-1,1.1-2,.8-2.6,0-.1-.2-.3-.4-.3,0,0-.2,0-.3,0-.7,0-1.6,1.3-1.7,1.3-.5.6-1,1.5-1,2.6v.2c0,.3,0,.8-.1.8,0,0-.3,0-.8-.5h-.1c0-.1-.3.2-.3.2-.2.2-.3.4-.5.6-.7.9-1.4,1.8-2.1,2.8-1.5,2-3,4.2-5,6l-.4.4c-.6.6-1.2,1.2-2,1.3-.4,0-.7,0-1.1-.3-1.6-.9-1.3-2.4-1-3.8v-.3c.6-3.4,1.9-6.4,3.9-8.9,1.4-1.8,3-2.7,5.1-2.9h.2c.9,0,1.8-.1,2.3.4.7.9,1.3,1.2,1.9,1.2.5,0,.9-.5,1.3-.9v-.2c.4-.3.8-.6,1.2-.8.3-.2.6-.3.9-.4.2,0,.5,0,.7.2.6.4.5.9.3,1.5-1,2.6-2,5.2-3,7.7l-.8,2c-.3.8-.6,1.7-.8,2.5l-.2.8c0,.3,0,.6,0,.8,0,.1.2.2.3.2,0,0,.2,0,.3,0,.7,0,1.8-.7,2.1-.9,2.1-1.7,4.2-3.4,6.1-5.1.6-.5,1.2-1.1,1.8-1.7.4-.4.9-.8,1.3-1.2.2-.2.4-.4.6-.6.4-.4.8-.7,1.2-1h.2c.2-.3.5-.6.7-.6.1,0,.3,0,.3.1ZM321.8,97.6c-.4-.5-1.1-.8-1.7-.8,0,0-.2,0-.2,0-.8.2-1.6.6-2.2,1-2.9,2-4.4,5.1-5.6,7.9-.1.3-.3.6-.4.9-.3.7-.7,1.4-.8,2.2,0,.4,0,1.5.5,1.9.1.1.3.2.4.1.2,0,.3,0,.5-.2,2.9-2.1,4.9-5,6.9-7.8.9-1.3,1.9-2.7,2.9-3.9.3-.4.3-.9-.1-1.4Z"/>
    <path class="cls-1" d="M359.2,100.5c0,0,0,.2-.2.3-.6.4-1.3.6-2,.7-2,.1-4.3-.8-5.9-2.4-1.4-1.4-2-2-2.7-1.9-.5,0-1.1.5-1.9,1.2-3.1,2.6-5.8,5.7-8.3,8.8l-1.2,1.4c0,.1-.2.2-.3.4-.2.3-.4.6-.8.7-.2,0-.5,0-.8-.3-.8-.5-.6-1.1-.5-1.7v-.2c1.1-4.6,2.5-8.5,4.3-12h0c.2-.6.5-1.1.9-1.1.1,0,.3,0,.5.1.3.1.5.3.5.5.2.3,0,.8-.2,1.1,0,.1-.1.3-.2.4l-.3,1c-.4,1.1-.7,2.2-1.1,3.3-.3.7-.5,1.4-.8,2.1,0,0-.6,1.7-.3,2h0c0,0,.1,0,.1,0,.7-.2,1.1-.7,1.5-1.2.2-.2.3-.4.5-.5l2-2c1.3-1.3,2.6-2.5,4-3.7.9-.8,1.5-1.2,2.1-1.2.8,0,1.7.7,3.1,2.2,1.6,1.7,3.7,2.6,5.7,2.5.3,0,.6,0,.9-.2.1,0,.2,0,.4-.2.2,0,.3-.2.5-.2.3,0,.4.1.4.2Z"/>
    <path class="cls-1" d="M387.1,81.1c0,.2,0,.4-.5.4-.2,0-.5,0-.7,0h-.2c-3.9-.2-7.6,0-11.1.2l-2.7.2c-.9,0-1.8.1-2.8.2h0c-1.1,0-1.8.3-2.2,1.2l-.8,1.8c-3.9,9.1-7.9,18.6-9.7,28.9-.7,4.1-.9,7.6-.6,11,0,.1,0,.3,0,.4,0,.6,0,1.2.5,1.6.3.3.8.5,1.5.5.1,0,.2,0,.3.1.1.1.2.3.3.5,0,.5-.2.6-.5.7h0c-1.5.1-2.5-.5-3.1-1.9-.6-1.5-.5-2.9-.5-4.3v-.4c.1-9.5,2.9-18,5.7-26.2l.2-.7c.9-2.7,2-5.3,3-7.9.5-1.2,1-2.4,1.5-3.7.1-.4.3-.7-.4-1.6h0c0-.1-.1,0-.1,0-1.6.1-3.2.2-4.8.3-1.6.1-3.3.2-4.9.3-2.7.2-4.8.4-6.8.6-.8,0-1.7.2-2.5.2-2.2.2-4.4.4-6.4,1-.2,0-.5.2-.8.2-.3,0-.5,0-.6-.1-.1,0-.3-.3-.3-.5-.1-.3,0-.5.5-.5.1,0,.7,0,.7,0h.2c3.9-.7,7.8-1,10.8-1.2,1.6-.1,3.2-.2,4.8-.3,1.6-.1,3.2-.2,4.8-.3,1.5-.1,3-.2,4.6-.4,1.5-.1,2.6-.5,3.2-2,1.3-3.2,3-6.2,5.4-9.2,0,0,.1-.2.2-.3.2-.3.4-.6.7-.7.2,0,.4,0,.6.3.7.5.5,1,0,1.7-.5.8-.9,1.5-1.3,2.2-1.4,2.2-2.8,4.5-3.9,7.3v.3c-.1,0,4.5-.3,4.5-.3,3.7-.3,7.8-.3,12.6-.1.1,0,.2,0,.4,0,.4,0,.8,0,1.1.2.1.1.2.3.2.5Z"/>
    <path class="cls-1" d="M385.3,98.6c0,.5-.7,1-1,1.3-1.1,1.1-2.3,2.2-3.5,3.2-2.5,2.1-5.3,3.8-8.6,4.9-1.4.5-2.9.8-4.5-.4-1.7-1.2-1.7-2.8-1.4-4.2.9-4.9,3-9.1,5.9-12.8.4-.5.8-1.2,1.7-.6,1,.7.4,1.3.1,1.8-1.9,3.7-3.9,7.3-5.2,11.3-.3,1.1-1.3,2.4,0,3.5,1.4,1.2,3,.5,4.2.1,2.6-.8,4.8-2.3,6.7-4,.6-.5,4.8-5.1,5.4-4.6.1,0,.2.2.2.4ZM374.8,87.2c-.1,0-.2-.3-.2-.4.3-1.4.9-2.8,1.7-4.3,0-.1.1-.2.3-.2.2,0,.5.2.7.5t0,0s0,0,0,0c0,0,0,.1,0,.1-.7,1.3-1.4,2.7-2.1,4,0,0-.1.1-.2.1,0,0,0,0-.1,0Z"/>
    <path class="cls-1" d="M413.2,96.1c0,.2-.1.5-.3.8,0,.1-.2.2-.2.3-2.6,4.7-6.3,8.6-11.4,12-.5.4-1.2.6-2.1.6h0c-.9,0-1.6-.1-2.1-.5-.5-.4-.8-1.1-.9-2-.1-1.6.5-2.9,1.2-4.2l.4-.9c.2-.4.4-.8.6-1.3v-.2c.2-.3.4-.7-.1-1.2-.3-.2-.6-.4-1-.3-.2,0-.3,0-.5,0-1.3.4-2.7.9-4,1.4-1.7.7-3.3,1.8-4.7,2.7-.7.4-1.3.9-2,1.3h-.2c-.3.3-.6.5-1,.5-.3,0-.7,0-1-.4-.8-.6-.7-1.2-.6-1.8v-.2c.4-2.9,1.3-5.5,2.6-7.9v-.2c.2-.3.4-.6.7-.6,0,0,.2,0,.3,0,.2,0,.4.2.5.4.4.7,0,1.8-.3,2.4,0,.2-.1.3-.2.4l-1.5,4.9c0,.1-.2.5.1.7.1,0,.3.1.5.1.5,0,1.1-.3,1.3-.5.3-.2.6-.4.8-.6.3-.2.6-.5,1-.7,1.1-.6,2.2-1.2,3.3-1.8,1.4-.7,2.7-1.2,3.9-1.4.2,0,.4,0,.6,0,.9,0,1.7.2,2.2.7.6.6.8,1.4.6,2.4-.2,1.2-.6,2.4-1,3.5-.2.6-.4,1.3-.6,1.9v.2c-.2.4-.4.9.1,1.3.3.2.6.4,1,.3.3,0,.6-.1.8-.2,3.2-1.2,5.4-3.5,7.2-5.6,1.5-1.7,3.4-3.9,4.5-6.4h0c.1-.5.3-1,.7-1,0,0,.2,0,.3,0,.2.1.4.3.4.4Z"/>
  </g>
</svg>